HIERARCHY
ROOT simHips
{
  OFFSET 86.6867 99.8517 -5.91809
  CHANNELS 6 Xposition Yposition Zposition Zrotation Xrotation Yrotation
  JOINT simSpine
  {
    OFFSET -0.000355721 21.3001 -0.016921
    CHANNELS 3 Zrotation Xrotation Yrotation
    JOINT simLeftArm
    {
      OFFSET 13.5181 21.3012 0
      CHANNELS 3 Zrotation Xrotation Yrotation
      JOINT simLeftForeArm
      {
        OFFSET 24.5783 0 0
        CHANNELS 3 Zrotation Xrotation Yrotation
        JOINT simLeftHand
        {
          OFFSET 24.5783 0 0
          CHANNELS 3 Zrotation Xrotation Yrotation
          End Site
          {
            OFFSET 7.32568 1.52588e-05 0.0169305
          }
        }
      }
    }
    JOINT simHead
    {
      OFFSET 0 27.4458 -0.00489235
      CHANNELS 3 Zrotation Xrotation Yrotation
      End Site
      {
        OFFSET 0 0 0
      }
    }
    JOINT simRightArm
    {
      OFFSET -13.5174 21.3012 0
      CHANNELS 3 Zrotation Xrotation Yrotation
      JOINT simRightForeArm
      {
        OFFSET -24.5783 0 0
        CHANNELS 3 Zrotation Xrotation Yrotation
        JOINT simRightHand
        {
          OFFSET -24.5783 0 0
          CHANNELS 3 Zrotation Xrotation Yrotation
          End Site
          {
            OFFSET -7.32568 1.52588e-05 0.0169305
          }
        }
      }
    }
  }
  JOINT simRightUpLeg
  {
    OFFSET -8.44614 -9.41038 0.835684
    CHANNELS 3 Zrotation Xrotation Yrotation
    JOINT simRightLeg
    {
      OFFSET 0 -40.9639 0
      CHANNELS 3 Zrotation Xrotation Yrotation
      JOINT simRightFoot
      {
        OFFSET 0 -40.9639 0
        CHANNELS 3 Zrotation Xrotation Yrotation
        End Site
        {
          OFFSET 0.50614 -9.67405 14.6709
        }
      }
    }
  }
  JOINT simLeftUpLeg
  {
    OFFSET 8.44614 -9.41038 0.835684
    CHANNELS 3 Zrotation Xrotation Yrotation
    JOINT simLeftLeg
    {
      OFFSET 0 -40.9639 0
      CHANNELS 3 Zrotation Xrotation Yrotation
      JOINT simLeftFoot
      {
        OFFSET 0 -40.9639 0
        CHANNELS 3 Zrotation Xrotation Yrotation
        End Site
        {
          OFFSET -0.50614 -9.67405 14.6709
        }
      }
    }
  }
}
MOTION
Frames:	13
Frame Time:	0.0333333
86.6867 99.8517 -5.91809 -1.70755e-06 0 -0 3.41509e-06 0 -0 -6.83019e-06 -1.70755e-06 -1.53679e-05 5.12264e-06 1.70755e-06 6.53182e-05 4.26887e-07 -7.19677e-14 -9.65935e-06 -1.70755e-06 0 -0 3.81667e-14 -2.56132e-06 1.70755e-06 -1.93227e-06 0.00411184 0.000157109 2.13443e-07 6.83019e-06 9.33981e-06 1.24769 0.570427 -0.00655342 2.72732e-06 0.0625192 0.0038797 -1.2477 -0.632943 -0.00703103 -1.46557 0.134728 0.0100271 9.26591e-05 1.30429 0.00502143 1.46579 -1.43893 0.0217645 
86.8914 99.8517 -5.79391 -0.0750671 0.00437765 -0.184295 -0.0379479 -0.0908401 0.0598898 0.580606 -0.0363524 0.0744942 -0.109381 -0.0373865 6.53182e-05 -0.115537 0.283972 -0.00413736 0.147759 0.0924936 0.14476 -0.913735 -0.434422 0.0891996 0.0148016 0.00411184 0.000157109 -0.255855 0.143457 -0.0168001 1.18689 0.606693 0.0495322 0.0147307 0.103801 0.0038797 -1.18152 -0.636645 0.0995992 -1.50026 0.170799 0.358197 -0.028658 1.4191 0.006599 1.6847 -1.61826 -0.159509 
87.0753 99.8517 -5.68025 -0.123689 0.0144708 -0.4185 -0.0862617 -0.15295 0.205916 0.917842 -0.46744 0.056296 -0.204192 -0.0694717 6.53182e-05 -0.154873 0.460386 -0.0758501 0.217772 0.0605235 0.235788 -1.60067 -0.984861 0.199883 0.0744959 0.00411184 0.000157109 -0.332909 -0.0870816 -0.0437112 1.11657 0.626139 0.109717 0.0255287 0.16671 0.00387971 -1.279 -0.727405 0.24345 -1.58488 0.210291 0.361701 -0.0443307 1.49809 0.014577 1.91646 -1.72936 0.0763948 
87.2293 99.8521 -5.56326 -0.189011 0.0522352 -0.596637 -0.111993 -0.263189 0.320556 1.08334 -0.524169 0.108368 -0.228218 -0.077581 6.53183e-05 -0.115487 0.341329 0.0357205 0.228735 -0.0946187 0.290458 -2.05286 -1.56863 0.283049 0.107894 0.00411184 0.000157109 -0.28479 -0.0519422 -0.133678 1.08753 0.579822 0.134736 0.0301364 0.260969 0.00406234 -1.13515 -0.745187 0.3539 -1.65236 0.300025 0.378054 -0.00010287 1.41722 0.0242457 2.06576 -1.78117 0.224046 
87.3786 99.8522 -5.44976 -0.236024 0.0681613 -0.719449 -0.113741 -0.353894 0.355613 1.03472 -0.581681 0.199515 -0.243663 -0.0846936 6.53183e-05 -0.201738 0.315187 -0.0310659 0.0637033 -0.354419 0.341217 -2.36548 -1.66505 0.421581 0.122501 0.00411184 0.000157109 -0.291471 0.185361 -0.0929056 1.03322 0.628445 0.128963 0.0300292 0.26581 0.00439746 -1.11623 -0.772431 0.480016 -1.69704 0.345163 0.426946 -0.0222471 1.45929 0.0276979 2.2403 -1.86082 0.303062 
87.4924 99.8494 -5.33809 -0.257762 0.0711427 -0.750518 -0.156013 -0.400991 0.39531 0.879085 -0.687377 0.175498 -0.277559 -0.0967322 6.53183e-05 -0.196943 0.39015 -0.119062 -0.0654476 -0.772282 0.347358 -2.49618 -1.79084 0.402473 0.123033 0.00411184 0.000157109 -0.20515 0.371093 0.000557121 0.98659 0.673306 0.160967 0.0354795 0.319627 0.00487083 -1.09679 -0.812062 0.463968 -1.75521 0.456279 0.324407 -0.00926569 1.37642 0.0293323 2.35964 -1.83993 0.42489 
87.591 99.8413 -5.23694 -0.270968 0.0854298 -0.775125 -0.182449 -0.463877 0.425387 0.678162 -0.757343 0.132937 -0.318495 -0.110481 6.53183e-05 -0.573303 0.0710253 -0.20625 -0.227444 -1.21258 0.371028 -2.52476 -1.95999 0.416218 0.117758 0.00411184 0.000157109 -0.161662 0.306935 -0.0439589 0.936524 0.655037 0.302103 0.0467859 0.460406 0.00546818 -1.0988 -0.938368 0.342384 -1.82799 0.518492 0.468301 0.00708839 1.3676 0.0308246 2.47625 -1.92526 0.313602 
87.6718 99.8394 -5.14174 -0.275558 0.0703005 -0.715456 -0.196257 -0.511977 0.39516 0.407981 -0.881922 -0.0127245 -0.404635 -0.135306 6.53184e-05 -0.711745 0.12485 -0.163328 -0.369301 -1.48398 0.461447 -2.49731 -1.91648 0.440654 0.109136 0.00411184 0.000157109 -0.133955 0.289576 -0.0290986 0.886085 0.700282 0.184175 0.0519134 0.531338 0.00617514 -1.08208 -0.982162 0.372824 -1.87634 0.573881 0.364812 0.00418732 1.40368 0.032174 2.56519 -1.97431 0.34046 
87.7433 99.8393 -5.05132 -0.26165 0.0630825 -0.610766 -0.222033 -0.548465 0.383394 0.118919 -0.892914 -0.164097 -0.425492 -0.141954 6.53184e-05 -0.911982 0.232742 -0.0771518 -0.470246 -1.76748 0.470759 -2.44915 -1.98659 0.418435 0.135758 0.00411184 0.000157109 -0.133844 0.377055 0.0519376 0.831201 0.764144 0.16774 0.0541197 0.556741 0.0069774 -1.0622 -1.0216 0.275893 -1.94473 0.629897 0.22634 0.00411809 1.41619 0.0333793 2.61448 -2.02649 0.377535 
87.7884 99.8393 -4.97759 -0.268035 0.0457245 -0.509234 -0.20308 -0.610183 0.343945 -0.183997 -0.775287 -0.246441 -0.439465 -0.146907 6.53184e-05 -0.97135 0.258386 -0.127532 -0.6367 -1.86957 0.514337 -2.40578 -1.93212 0.483031 0.137093 0.00411184 0.000157109 -0.134071 0.368104 0.0497713 0.801657 0.765312 0.0898726 0.0648575 0.693746 0.00786086 -1.00958 -1.13722 0.254765 -1.96071 0.649312 0.263247 -0.0254498 1.48641 0.0344415 2.6585 -2.10004 0.265566 
87.8279 99.8395 -4.90528 -0.254378 0.0510148 -0.419833 -0.212214 -0.661676 0.337665 -0.464724 -0.776444 -0.329842 -0.453604 -0.151863 6.53184e-05 -1.02522 0.135678 -0.136539 -0.723276 -2.03358 0.484574 -2.34778 -1.84359 0.442683 0.113547 0.00411184 0.000157109 -0.119387 0.318124 0.106397 0.75699 0.767861 -0.00284923 0.0702364 0.776672 0.00881104 -1.01327 -1.18474 0.241173 -2.00682 0.673996 0.257136 -0.0141153 1.50442 0.0353586 2.71758 -2.10872 0.188485 
87.8394 99.8396 -4.85054 -0.248414 0.0320021 -0.283128 -0.232572 -0.700497 0.303356 -0.668396 -0.780829 -0.382616 -0.476222 -0.158945 6.53184e-05 -1.15945 0.256833 -0.204673 -0.752617 -2.09709 0.431209 -2.27486 -1.74468 0.435225 0.130746 0.00411184 0.000157109 -0.0846872 0.35559 0.0779819 0.743844 0.861869 -0.0808492 0.0748905 0.758367 0.00981345 -1.08359 -1.22965 0.196874 -2.01953 0.774066 0.204763 0.000610021 1.40356 0.0361289 2.72092 -2.06778 0.101808 
87.825 99.8395 -4.80101 -0.263709 0.00143196 -0.151813 -0.252902 -0.686542 0.267677 -0.809584 -0.843108 -0.434175 -0.4968 -0.165267 6.53185e-05 -1.2961 0.455944 -0.135136 -0.70203 -2.13162 0.367799 -2.19948 -1.77648 0.420992 0.14017 0.00411184 0.000157109 -0.171528 0.596081 0.119847 0.775703 0.945934 -0.212514 0.0621193 0.700426 0.0108539 -1.08365 -1.19026 0.184748 -1.99147 0.81467 0.183367 -0.0152915 1.43727 0.0367564 2.7262 -2.11576 0.0182571 
